PathFileType	4	(X/Y/Z)	../Python\walking\Walking16\task.trc
DataRate	CameraRate	NumFrames	NumMarkers	Units	OrigDataRate	OrigDataStartFrame	OrigNumFrames
200.000000	200.000000	4	30	mm	200.000000	90	452
Frame#	Time	C7			RBAK			CLAV			STRN			RASI			LASI			PE01			RTH1			RTH2			RTH3			RD5M			RTOE			LTH2			LTH3			LTB2			LTB3			LHEE			LTOE			LD5M			LTB1			RTB2			RHEE			RTB3			RTB1			LTH1			LPSI			PE03			PE02			RPSI			T10			
		X1	Y1	Z1	X2	Y2	Z2	X3	Y3	Z3	X4	Y4	Z4	X5	Y5	Z5	X6	Y6	Z6	X7	Y7	Z7	X8	Y8	Z8	X9	Y9	Z9	X10	Y10	Z10	X11	Y11	Z11	X12	Y12	Z12	X13	Y13	Z13	X14	Y14	Z14	X15	Y15	Z15	X16	Y16	Z16	X17	Y17	Z17	X18	Y18	Z18	X19	Y19	Z19	X20	Y20	Z20	X21	Y21	Z21	X22	Y22	Z22	X23	Y23	Z23	X24	Y24	Z24	X25	Y25	Z25	X26	Y26	Z26	X27	Y27	Z27	X28	Y28	Z28	X29	Y29	Z29	X30	Y30	Z30	

91	0.59	-722.535339355469	1321.56494140625	158.8348083496094	-751.771911621094	1230.298583984375	283.0154113769532	-606.858581542969	1219.902709960938	141.0211029052735	-551.3372802734377	1034.82861328125	150.1998596191407	-582.5884399414065	848.5447387695317	304.2679748535157	-567.019958496094	844.0615844726567	75.26399230957034	-768.192016601563	919.9228515625005	180.2188873291016	-723.0529785156252	572.5468750000002	324.3119506835939	-728.1089477539065	495.7211608886721	303.4016113281251	-686.1174926757815	540.4405517578127	310.2729797363282	-830.3286132812505	15.34670639038087	270.4626464843751	-790.9251098632817	28.07162666320802	215.8435668945314	-558.1257324218752	523.921081542969	59.16421127319339	-506.7412109375002	576.7926025390627	31.791316986084	-411.4203796386721	201.036834716797	68.92601013183597	-389.2832946777346	245.3824615478517	68.97352600097659	-351.7299194335939	28.53743934631349	127.951774597168	-181.3951873779297	114.4185409545899	110.852279663086	-208.9210510253907	78.88511657714847	70.36779785156253	-444.2244567871096	272.988739013672	58.76093292236331	-850.783569335938	253.3733978271486	291.2337951660157	-977.903442382813	49.52879333496097	206.2570648193361	-834.292602539063	208.8444976806642	273.5131225585939	-796.1555786132817	277.8647460937501	281.2077026367189	-556.687683105469	580.9514160156252	34.96019744873048	-772.9294433593755	877.8507690429692	144.9138336181641	-784.0158081054692	859.4255371093755	154.9590454101563	-790.5884399414067	862.3374633789067	205.0769195556642	-778.1054687500005	889.4748535156255	229.3950805664064	-758.5196533203127	1022.759155273438	186.5951843261719	
92	0.595	-715.8126220703127	1320.263793945313	158.1854553222657	-744.9359130859377	1229.107543945313	282.5651245117189	-599.9331054687502	1218.605224609375	140.5006408691407	-544.0738525390627	1033.602661132813	150.0660858154297	-575.5406494140627	847.2368164062505	304.4820556640626	-559.4756469726565	843.0990600585942	75.39237976074222	-760.6728515625002	918.9027709960942	179.8339538574219	-717.5915527343752	571.8928833007815	324.3254699707032	-722.9341430664065	495.0602111816409	303.4989624023439	-680.7752075195315	539.5522460937502	310.4613647460939	-830.3609008789067	15.35606670379639	270.4340209960939	-790.8010253906255	28.05092048645021	215.9104614257814	-550.0594482421877	523.207458496094	59.24225616455081	-498.7744750976565	576.3005371093752	31.73549842834474	-403.599060058594	200.3866424560548	69.25547790527347	-381.301727294922	244.6707916259767	69.65618896484378	-345.1600952148439	27.8557586669922	128.234115600586	-174.4130096435547	112.7698974609376	113.1024551391602	-201.652801513672	77.52104949951175	72.157096862793	-436.0171508789065	272.4447326660157	59.01979064941409	-848.051635742188	253.8909149169923	291.2991943359376	-977.4686889648442	51.53264236450198	206.4593658447267	-832.0930786132817	209.1148376464845	273.718475341797	-793.1087036132817	277.6896362304689	281.3956909179689	-548.8143310546877	580.1656494140627	35.01242828369142	-765.5061035156252	876.8137817382817	144.5360412597657	-776.5819702148442	858.5740356445317	154.2411041259766	-783.4465942382817	861.3120727539067	204.3314819335939	-770.9341430664067	888.4238281250005	228.8432006835939	-751.3308105468752	1021.458312988282	186.4953002929688	
93	0.6	-709.0583496093752	1319.036865234375	157.5144653320313	-738.0759277343752	1228.000732421875	282.0892333984376	-592.9724121093752	1217.39453125	139.9652862548829	-536.772644042969	1032.466918945313	149.9145507812501	-568.4331665039065	845.9692993164067	304.6586303710939	-551.933776855469	842.242309570313	75.491569519043	-753.129089355469	917.9680786132817	179.5303344726563	-711.9808349609377	571.231140136719	324.2952880859376	-717.6108398437502	494.3815917968752	303.5529785156251	-675.286804199219	538.6600341796877	310.5769958496095	-830.385375976563	15.3819694519043	270.3928833007814	-790.661254882813	28.03840255737306	215.9722137451173	-541.7717895507815	522.674987792969	59.26319122314456	-490.5459289550784	576.0332031250002	31.7892532348633	-396.2207641601565	199.7247924804689	69.64394378662112	-373.643280029297	243.8932189941407	70.37117767333987	-339.4960021972657	27.11903190612794	128.5096588134766	-168.1697692871094	110.4541854858399	115.3927917480469	-195.2081146240236	75.62600708007815	73.97917175292972	-428.0720825195315	271.9595031738282	59.33220291137698	-845.200073242188	254.460174560547	291.3483886718751	-976.9787597656255	53.67227935791018	206.6892395019532	-829.7958984375005	209.434539794922	273.9029541015626	-789.9498901367192	277.5503234863282	281.5556640625001	-540.714538574219	579.5841064453127	35.10474777221681	-758.0628051757815	875.8847045898442	144.2068634033204	-769.119750976563	857.8211059570317	153.5790100097657	-776.2483520507817	860.3543090820317	203.6453247070314	-763.7005615234377	887.438598632813	228.3601837158204	-744.095153808594	1020.242004394532	186.4264678955079	
94	0.605	-702.2727661132815	1317.890014648438	156.8231811523438	-731.1923828125002	1226.984130859375	281.5892333984376	-585.9774169921877	1216.276977539063	139.4163208007813	-529.435729980469	1031.428344726563	149.7452850341797	-561.2650146484377	844.747436523438	304.7930297851564	-544.3956298828127	841.498413085938	75.55686950683597	-745.564636230469	917.120727539063	179.3090362548829	-706.2188110351565	570.5652465820315	324.217987060547	-712.1370849609377	493.6885986328127	303.5602111816407	-669.649597167969	537.7675781250002	310.6195678710939	-830.3984985351567	15.42749023437501	270.3399047851564	-790.5065917968755	28.03373527526857	216.0289306640626	-533.2753906250002	522.3255615234377	59.22223663330081	-482.0688781738284	575.9778442382815	31.94562149047853	-389.2526855468752	199.0725860595704	70.09020996093753	-366.2871704101564	243.0724182128907	71.11135101318362	-334.6699829101564	26.37323570251466	128.7729492187501	-162.5995635986329	107.517692565918	117.6846923828126	-189.5386199951172	73.24055480957034	75.80510711669925	-420.3755187988284	271.5463256835939	59.70202255249026	-842.221801757813	255.0862884521486	291.381072998047	-976.4263305664067	55.95794296264651	206.9478912353517	-827.392944335938	209.8096618652345	274.0649719238282	-786.6716918945317	277.4510803222657	281.6864318847657	-532.3924560546877	579.2112426757815	35.22786331176759	-750.6016235351565	875.065795898438	143.9271545410157	-761.6304321289065	857.1672363281255	152.976547241211	-768.9923706054692	859.4652709960942	203.0225830078126	-756.4048461914065	886.520385742188	227.9489746093751	-736.814636230469	1019.115905761719	186.3879394531251	
